HIERARCHY
ROOT Hips
{
	OFFSET 0.00000 0.00000 0.00000
	CHANNELS 6 Xposition Yposition Zposition Zrotation Yrotation Xrotation 
	JOINT LHipJoint
	{
		OFFSET 0 0 0
		CHANNELS 3 Zrotation Yrotation Xrotation
		JOINT LeftHip
		{
			OFFSET 1.59715 -1.91394 0.36268
			CHANNELS 3 Zrotation Yrotation Xrotation
			JOINT LeftKnee
			{
				OFFSET 2.53886 -6.97546 0.00000
				CHANNELS 3 Zrotation Yrotation Xrotation
				JOINT LeftAnkle
				{
					OFFSET 2.77084 -7.61284 0.00000
					CHANNELS 3 Zrotation Yrotation Xrotation
					JOINT LeftToe
					{
						OFFSET 0.19855 -0.54550 2.06057
						CHANNELS 3 Zrotation Yrotation Xrotation
						End Site
						{
							OFFSET 0.00000 -0.00000 1.07182
						}
					}
				}
			}
		}
	}
	JOINT RHipJoint
	{
		OFFSET 0 0 0
		CHANNELS 3 Zrotation Yrotation Xrotation
		JOINT RightHip
		{
			OFFSET -1.71086 -1.91394 0.36268
			CHANNELS 3 Zrotation Yrotation Xrotation
			JOINT RightKnee
			{
				OFFSET -2.59448 -7.12828 0.00000
				CHANNELS 3 Zrotation Yrotation Xrotation
				JOINT RightAnkle
				{
					OFFSET -2.80237 -7.69945 0.00000
					CHANNELS 3 Zrotation Yrotation Xrotation
					JOINT RightToe
					{
						OFFSET -0.18280 -0.50224 2.06614
						CHANNELS 3 Zrotation Yrotation Xrotation
						End Site
						{
							OFFSET -0.00000 -0.00000 1.07055
						}
					}
				}
			}
		}
	}
	JOINT lowerback
	{
		OFFSET 0 0 0
		CHANNELS 3 Zrotation Yrotation Xrotation
		JOINT Chest
		{
			OFFSET 0.04838 1.91536 -0.09733
			CHANNELS 3 Zrotation Yrotation Xrotation
			JOINT Chest2
			{
				OFFSET 0.04097 1.92183 -0.02751
				CHANNELS 3 Zrotation Yrotation Xrotation
				JOINT lowerneck
				{
					OFFSET 0 0 0
					CHANNELS 3 Zrotation Yrotation Xrotation
					JOINT Neck
					{
						OFFSET 0.18766 3.12816 0.13727
						CHANNELS 3 Zrotation Yrotation Xrotation
						JOINT Head
						{
							OFFSET -0.11178 3.16074 0.02732
							CHANNELS 3 Zrotation Yrotation Xrotation
							End Site
							{
								OFFSET 0.47685 1.04189 0.57898
							}
						}
					}
				}
				JOINT LeftCollar
				{
					OFFSET 0 0 0
					CHANNELS 3 Zrotation Yrotation Xrotation
					JOINT LeftShoulder
					{
						OFFSET 3.49325 0.99827 -0.10681
CHANNELS 3 Zrotation Xrotation Yrotation
						JOINT LeftElbow
						{
OFFSET 0 -5.128420 0.000000
CHANNELS 3 Zrotation Xrotation Yrotation
							JOINT LeftWrist
							{
OFFSET 0 -3.473960 0.000000
CHANNELS 3 Zrotation Xrotation Yrotation
								JOINT lhand
								{
									OFFSET 0 0 0
CHANNELS 3 Zrotation Xrotation Yrotation
									JOINT LFingers
									{
OFFSET 0 -0.728610 0.000000
CHANNELS 3 Zrotation Xrotation Yrotation
										End Site
										{
OFFSET 0 -0.587420 0.000000
										}
									}
								}
								JOINT LThumb
								{
OFFSET 0 0.000000 0.000000
CHANNELS 3 Zrotation Xrotation Yrotation
									End Site
									{
OFFSET 0 -0.596390 0.596390
									}
								}
							}
						}
					}
				}
				JOINT RightCollar
				{
					OFFSET 0 0 0
					CHANNELS 3 Zrotation Yrotation Xrotation
					JOINT RightShoulder
					{
						OFFSET -3.23261 1.50670 -0.18692
CHANNELS 3 Zrotation Xrotation Yrotation
						JOINT RightElbow
						{
OFFSET 0 -5.484770 -0.000000
CHANNELS 3 Zrotation Xrotation Yrotation
							JOINT RightWrist
							{
OFFSET 0 -3.478560 0.000000
CHANNELS 3 Zrotation Xrotation Yrotation
								JOINT rhand
								{
									OFFSET 0 0 0
CHANNELS 3 Zrotation Xrotation Yrotation
									JOINT RFingers
									{
OFFSET 0 -0.709970 0.000000
CHANNELS 3 Zrotation Xrotation Yrotation
										End Site
										{
OFFSET 0 -0.572400 0.000000
										}
									}
								}
								JOINT RThumb
								{
OFFSET 0 0.000000 0.000000
CHANNELS 3 Zrotation Xrotation Yrotation
									End Site
									{
OFFSET 0 -0.581140 0.581140
									}
								}
							}
						}
					}
				}
			}
		}
	}
}
MOTION
Frames: 11
Frame Time: 0.008333333333333333
0.066600 18.252600 -4.002700 -3.458900 4.523900 5.101400 0.000000 0.000000 0.000000 -16.904800 -13.501600 -10.578100 2.277600 9.421900 27.124200 0.808400 5.054500 -19.551300 0.031200 1.140700 3.136000 0.000000 0.000000 0.000000 27.100800 13.756300 -13.131500 -2.809800 -10.380600 30.218400 -0.776100 -7.637000 -21.113500 -1.941900 -8.744100 24.998000 3.332600 -2.678000 2.568200 3.073800 -3.341000 -1.917800 1.488400 -1.704100 -3.424000 -10.228600 -12.106900 -9.419100 0.060900 -14.868800 13.379000 0.290000 -7.712700 6.380300 0.000000 -0.000000 0.000000 3.186700 7.908700 0.143400 19.977400 -30.615100 5.519800 6.686400 15.909100 -28.123400 0.000000 0.000000 0.000000 -7.125000 0.000000 0.000000 -25.783100 56.340400 7.520100 0.000000 -0.000000 0.000000 -9.269300 2.754600 12.350000 -15.404100 -24.706100 -3.393100 -20.075100 -5.261400 -18.320800 0.000000 0.000000 0.000000 7.125000 0.000000 -0.000000 5.236800 10.623800 4.199600
0.090116 18.250564 -4.016636 -3.217384 4.611712 5.334071 0.000000 0.000000 0.000000 -17.188165 -13.611127 -10.840448 2.268943 9.405105 27.070871 0.796438 4.925506 -19.348530 0.030115 1.120006 3.079160 0.000000 0.000000 0.000000 26.671670 13.774864 -13.569800 -2.862235 -10.468634 30.507993 -0.803374 -7.566374 -21.314677 -1.949783 -8.760630 25.049419 3.100505 -2.811376 2.407526 3.120709 -3.536090 -1.922115 1.667222 -1.795291 -3.320399 -9.911347 -11.939808 -9.954056 -0.165700 -14.594263 13.354889 0.176342 -7.577044 6.406306 0.000000 0.000000 0.000000 3.169739 7.276440 -0.206885 19.836485 -30.444853 5.448278 6.361277 16.067264 -27.927102 0.000000 0.000000 0.000000 -7.125000 0.000000 0.000000 -25.961197 56.099708 7.422264 0.000000 0.000000 0.000000 -9.137932 2.385100 12.539438 -15.633070 -25.020567 -3.489348 -20.409731 -5.582992 -18.043055 0.000000 0.000000 0.000000 7.125000 0.000000 0.000000 5.000419 10.870826 3.983244
0.113421 18.242258 -4.026622 -3.317449 4.068209 5.003322 0.000000 0.000000 0.000000 -17.275233 -13.319673 -10.628586 2.306108 9.476512 27.297658 0.802355 5.175442 -19.571540 0.029495 1.107263 3.044000 0.000000 0.000000 0.000000 26.756797 13.982635 -13.244631 -2.882274 -10.501971 30.618055 -0.790440 -7.463154 -21.112402 -1.974622 -8.812446 25.210787 3.149358 -2.686160 2.702424 3.244711 -3.355834 -1.721863 1.766481 -1.703833 -3.275926 -9.964385 -11.880677 -10.066351 -0.018310 -14.511902 13.004855 0.243049 -7.522423 6.323234 0.000000 0.000000 0.000000 2.975141 6.913331 -1.227677 20.019391 -30.665646 5.541265 6.391433 15.731938 -27.728785 0.000000 0.000000 0.000000 -7.125000 0.000000 0.000000 -25.791254 55.928314 7.259304 0.000000 0.000000 0.000000 -9.123691 2.037310 13.094909 -15.775497 -25.215262 -3.549741 -20.445434 -6.005251 -17.971162 0.000000 0.000000 0.000000 7.125000 0.000000 0.000000 4.972589 10.941486 3.953619
0.136141 18.239945 -4.031597 -3.324934 3.890387 4.728589 0.000000 0.000000 0.000000 -17.423098 -13.029447 -10.387423 2.307582 9.479374 27.306590 0.798238 5.155831 -19.517353 0.031887 1.152473 3.168429 0.000000 0.000000 0.000000 26.725061 13.796364 -13.076841 -2.911164 -10.549822 30.776159 -0.814735 -7.241835 -21.169813 -1.937314 -8.734269 24.967467 3.235326 -2.621853 2.797616 3.274492 -3.270233 -1.489286 1.740755 -1.660613 -3.092647 -9.925755 -11.785550 -10.279106 0.228265 -14.400096 12.841508 0.317691 -7.443875 6.315848 0.000000 0.000000 0.000000 2.739390 6.605164 -2.207134 20.429898 -31.156855 5.752108 6.751387 15.920885 -27.463966 0.000000 0.000000 0.000000 -7.125000 0.000000 0.000000 -25.254374 55.762210 6.988827 0.000000 0.000000 0.000000 -8.953962 1.570213 13.204901 -15.762335 -25.197394 -3.544180 -20.053149 -5.387042 -17.732729 0.000000 0.000000 0.000000 7.125000 0.000000 0.000000 5.216333 11.241084 4.116906
0.147449 18.235475 -4.042735 -3.076160 3.798332 4.720916 0.000000 0.000000 0.000000 -17.738452 -12.871878 -10.467166 2.307842 9.479763 27.307965 0.797604 5.089370 -19.467463 0.035002 1.208172 3.321843 0.000000 0.000000 0.000000 26.389574 13.856202 -13.200018 -2.949430 -10.612784 30.984725 -0.841013 -7.140773 -21.338421 -1.978242 -8.820574 25.235583 2.991558 -2.553256 2.807541 3.218496 -3.194374 -1.385639 1.810678 -1.617891 -2.980720 -9.767503 -11.737769 -10.166931 0.354859 -14.388834 12.453409 0.357209 -7.418004 6.168958 0.000000 0.000000 0.000000 2.612869 6.298178 -2.972759 20.766806 -31.555090 5.927441 6.066197 15.746599 -27.627871 0.000000 0.000000 0.000000 -7.125000 0.000000 0.000000 -26.036852 55.774082 7.234811 0.000000 0.000000 0.000000 -8.736638 1.473730 14.013531 -15.942446 -25.442576 -3.621177 -20.083752 -5.653853 -17.947690 0.000000 0.000000 0.000000 7.125000 0.000000 0.000000 5.208676 11.012543 4.135323
0.160841 18.237306 -4.047736 -3.244189 4.027126 4.721576 0.000000 0.000000 0.000000 -17.594357 -13.164460 -10.437374 2.315542 9.494531 27.354953 0.798715 5.072786 -19.467290 0.043833 1.350255 3.712966 0.000000 0.000000 0.000000 26.517037 13.738933 -13.251462 -2.941770 -10.600235 30.943127 -0.844516 -7.090121 -21.332360 -2.096870 -9.064482 25.997735 3.301981 -2.584729 2.786781 3.281973 -3.222090 -1.396308 1.704697 -1.636910 -2.993999 -9.628245 -11.593646 -10.405038 0.284005 -14.179918 12.564057 0.321155 -7.315417 6.218430 0.000000 0.000000 0.000000 2.411082 6.330175 -3.863370 21.109943 -31.956481 6.108053 6.436109 15.762470 -27.733781 0.000000 0.000000 0.000000 -7.125000 0.000000 0.000000 -25.750696 55.941877 7.254738 0.000000 0.000000 0.000000 -8.645406 1.498248 14.942144 -16.019682 -25.547353 -3.654441 -19.800883 -5.933017 -17.725736 0.000000 0.000000 0.000000 7.125000 0.000000 0.000000 5.382066 11.280122 4.244625
0.164874 18.237066 -4.056605 -3.177365 4.232053 4.773943 0.000000 0.000000 0.000000 -17.662129 -13.369792 -10.514501 2.319842 9.502674 27.380797 0.793692 5.034576 -19.392207 0.054265 1.502543 4.132684 0.000000 0.000000 0.000000 26.406518 13.705840 -13.409487 -2.955100 -10.621971 31.015328 -0.828378 -7.268549 -21.317526 -1.952246 -8.765788 25.065493 3.329680 -2.545620 2.838208 3.222630 -3.165494 -1.435876 1.629186 -1.610234 -3.068881 -9.244274 -11.077917 -10.574965 0.381322 -13.538971 12.486217 0.360196 -6.979443 6.171178 0.000000 0.000000 0.000000 2.255940 6.288857 -4.358718 21.263936 -32.135183 6.189750 6.644497 15.610401 -27.323780 0.000000 0.000000 0.000000 -7.125000 0.000000 0.000000 -25.262223 55.615242 6.898955 0.000000 0.000000 0.000000 -8.333681 1.652169 15.210104 -16.149712 -25.723222 -3.710713 -19.376818 -5.533552 -17.543746 0.000000 0.000000 0.000000 7.125000 0.000000 0.000000 5.651887 11.521861 4.431120
0.172391 18.238706 -4.040892 -3.040491 4.344005 4.612124 0.000000 0.000000 0.000000 -17.892211 -13.292095 -10.252702 2.311611 9.486960 27.330906 0.802294 4.896309 -19.388070 0.063849 1.630184 4.484611 0.000000 0.000000 0.000000 26.270145 13.432496 -13.147450 -2.943760 -10.603517 30.954017 -0.855568 -7.149021 -21.478903 -1.883770 -8.619523 24.612243 3.243632 -2.361018 2.681289 3.166675 -2.939059 -1.294896 1.593846 -1.494376 -2.833465 -8.288028 -10.110312 -11.612159 -0.111941 -12.215664 13.273949 0.133993 -6.335372 6.443693 0.000000 0.000000 0.000000 2.151326 5.781288 -4.782654 20.918371 -31.732909 6.006977 6.207645 15.822329 -28.147593 0.000000 0.000000 0.000000 -7.125000 0.000000 0.000000 -26.269787 56.265532 7.627479 0.000000 0.000000 0.000000 -8.153909 1.857229 15.076710 -16.168393 -25.748464 -3.718794 -19.716425 -6.047261 -18.418083 0.000000 0.000000 0.000000 7.125000 0.000000 0.000000 5.477446 10.568544 4.400460
0.176949 18.240165 -4.035184 -3.123339 4.484971 4.366751 0.000000 0.000000 0.000000 -17.840415 -13.113667 -10.113714 2.321840 9.506559 27.393041 0.829598 4.590273 -19.464704 0.071566 1.725309 4.747143 0.000000 0.000000 0.000000 26.395027 13.360807 -12.774789 -2.920474 -10.565138 30.827025 -0.837791 -7.088971 -21.269338 -2.139676 -9.150386 26.267340 3.351418 -2.221399 2.602694 3.229614 -2.760437 -1.088666 1.579067 -1.403981 -2.579026 -7.577089 -8.843047 -12.687579 -0.207195 -10.512994 14.021400 0.110414 -5.489329 6.754686 0.000000 0.000000 0.000000 1.997690 5.042199 -5.008722 20.108275 -30.772512 5.586668 6.458806 16.502323 -27.738736 0.000000 0.000000 0.000000 -7.125000 0.000000 0.000000 -25.731974 55.950737 7.254677 0.000000 0.000000 0.000000 -8.269329 2.065030 15.413303 -16.139872 -25.709952 -3.706397 -19.394093 -5.891808 -18.680650 0.000000 0.000000 0.000000 7.125000 0.000000 0.000000 5.703295 10.336832 4.610867
0.178036 18.236045 -4.030093 -3.121942 5.012745 4.184516 0.000000 0.000000 0.000000 -17.839417 -13.207396 -10.091723 2.353047 9.565598 27.581277 0.843379 4.624076 -19.621797 0.029850 1.114793 3.064720 0.000000 0.000000 0.000000 26.485860 13.238345 -12.590230 -2.908981 -10.546202 30.764230 -0.768075 -7.844776 -21.204414 -1.890530 -8.633600 24.656018 3.352827 -2.096250 2.702049 3.284082 -2.589086 -1.019595 1.628006 -1.317429 -2.561484 -6.986134 -7.708899 -13.815970 -0.365111 -8.963874 14.758057 0.076155 -4.729886 7.095109 0.000000 0.000000 0.000000 1.820407 4.391508 -5.286513 19.275256 -29.759212 5.166759 5.894095 17.784281 -27.771258 0.000000 0.000000 0.000000 -7.125000 0.000000 0.000000 -26.305648 55.867867 7.378778 0.000000 0.000000 0.000000 -8.432722 2.056595 15.190611 -15.999510 -25.519910 -3.645729 -16.362086 -2.970098 -14.201342 0.000000 0.000000 0.000000 7.125000 0.000000 0.000000 7.565187 15.292106 5.349679
0.186081 18.225701 -4.038953 -3.026390 5.661544 4.056689 0.000000 0.000000 0.000000 -17.915230 -13.224683 -10.251781 2.395057 9.644561 27.833247 0.862951 4.524762 -19.751438 0.024658 1.013437 2.785745 0.000000 0.000000 0.000000 26.363787 13.119925 -12.544257 -2.949200 -10.612361 30.983463 -0.862100 -7.509937 -21.812190 -2.395430 -9.645192 27.835145 3.412517 -2.094831 2.906537 3.228647 -2.578864 -0.909273 1.542599 -1.312941 -2.567914 -6.422699 -6.741123 -15.019196 -0.467652 -7.649269 15.211362 0.052095 -4.077901 7.379252 0.000000 0.000000 0.000000 1.636899 3.747104 -5.320700 18.741244 -29.095842 4.904348 5.512060 18.311922 -27.445777 0.000000 0.000000 0.000000 -7.125000 0.000000 0.000000 -26.447176 55.503248 7.181930 0.000000 0.000000 0.000000 -8.490900 1.451299 14.349865 -15.325711 -24.597840 -3.360384 -17.999559 -3.147690 -16.164426 0.000000 0.000000 0.000000 7.125000 0.000000 0.000000 6.510879 13.107218 4.890458
